<svg width="24" height="24" viewBox="0 0 24 24" fill="none" xmlns="http://www.w3.org/2000/svg">
<path d="M14.8 4.61301L21.501 15.774C22.464 17.377 21.991 19.486 20.444 20.484C19.9248 20.8202 19.3196 20.9994 18.701 21H5.298C3.477 21 2 19.47 2 17.581C2 16.942 2.173 16.317 2.498 15.774L9.2 4.61301C10.162 3.01001 12.196 2.51901 13.743 3.51701C14.171 3.79301 14.533 4.16801 14.8 4.61301ZM12.58 5.45201C12.4576 5.37327 12.3205 5.32016 12.1769 5.29589C12.0334 5.27162 11.8865 5.2767 11.745 5.31081C11.6035 5.34492 11.4703 5.40737 11.3536 5.49437C11.2369 5.58138 11.1391 5.69113 11.066 5.81701L4.365 16.98C4.25615 17.1619 4.19877 17.37 4.199 17.582C4.199 18.212 4.691 18.722 5.299 18.722H18.7C18.906 18.722 19.107 18.662 19.281 18.55C19.5307 18.3841 19.7067 18.1283 19.7725 17.8358C19.8383 17.5434 19.7886 17.2368 19.634 16.98L12.933 5.81701C12.8451 5.67003 12.7247 5.54517 12.581 5.45201H12.58ZM12 17C11.7348 17 11.4804 16.8947 11.2929 16.7071C11.1054 16.5196 11 16.2652 11 16C11 15.7348 11.1054 15.4804 11.2929 15.2929C11.4804 15.1054 11.7348 15 12 15C12.2652 15 12.5196 15.1054 12.7071 15.2929C12.8946 15.4804 13 15.7348 13 16C13 16.2652 12.8946 16.5196 12.7071 16.7071C12.5196 16.8947 12.2652 17 12 17ZM12 8.00001C12.2652 8.00001 12.5196 8.10537 12.7071 8.2929C12.8946 8.48044 13 8.73479 13 9.00001V13C13 13.2652 12.8946 13.5196 12.7071 13.7071C12.5196 13.8947 12.2652 14 12 14C11.7348 14 11.4804 13.8947 11.2929 13.7071C11.1054 13.5196 11 13.2652 11 13V9.00001C11 8.73479 11.1054 8.48044 11.2929 8.2929C11.4804 8.10537 11.7348 8.00001 12 8.00001V8.00001Z" fill="#BB0000"/>
</svg>
