<svg width="28" height="28" viewBox="0 0 28 28" fill="none" xmlns="http://www.w3.org/2000/svg">
<path d="M26.5 15.1261C26.2811 17.4953 25.3919 19.7532 23.9366 21.6355C22.4812 23.5178 20.5199 24.9467 18.2822 25.755C16.0444 26.5633 13.6227 26.7176 11.3004 26.1997C8.97813 25.6819 6.85137 24.5135 5.16895 22.8311C3.48654 21.1486 2.31806 19.0219 1.80025 16.6996C1.28244 14.3773 1.43671 11.9556 2.24502 9.71785C3.05332 7.48006 4.48222 5.51876 6.36453 4.06343C8.24683 2.6081 10.5047 1.71894 12.8739 1.5C11.4868 3.37657 10.8193 5.68868 10.9928 8.01579C11.1664 10.3429 12.1694 12.5304 13.8195 14.1805C15.4696 15.8306 17.6571 16.8336 19.9842 17.0072C22.3113 17.1807 24.6234 16.5132 26.5 15.1261V15.1261Z" stroke="#F9F9F9" stroke-width="2" stroke-linecap="round" stroke-linejoin="round"/>
</svg>
