<svg width="11" height="15" viewBox="0 0 11 15" fill="none" xmlns="http://www.w3.org/2000/svg">
<path d="M2.67749 14.1664C2.32861 14.1644 1.9841 14.0887 1.66651 13.9442C1.32303 13.7928 1.03039 13.5458 0.823538 13.2325C0.616687 12.9193 0.504369 12.5532 0.5 12.1778V2.82348C0.504369 2.44814 0.616687 2.08199 0.823538 1.76875C1.03039 1.45552 1.32303 1.20845 1.66651 1.05705C2.06173 0.870369 2.50144 0.798468 2.93553 0.849538C3.36963 0.900608 3.78065 1.07259 4.12175 1.3459L9.78767 6.02306C10.0099 6.19995 10.1893 6.42466 10.3126 6.68048C10.436 6.93631 10.5 7.21665 10.5 7.50065C10.5 7.78465 10.436 8.06499 10.3126 8.32081C10.1893 8.57663 10.0099 8.80135 9.78767 8.97823L4.12175 13.6554C3.71333 13.9866 3.20332 14.1671 2.67749 14.1664ZM2.67749 3.05679V11.8334L8.07678 7.50065L2.67749 3.05679Z" fill="white"/>
</svg>
