<svg width="11" height="15" viewBox="0 0 11 15" fill="none" xmlns="http://www.w3.org/2000/svg">
<path d="M8.32251 14.1664C7.79668 14.1671 7.28667 13.9866 6.87825 13.6554L1.21233 8.97823C0.990141 8.80135 0.810707 8.57663 0.687377 8.32081C0.564048 8.06499 0.5 7.78465 0.5 7.50065C0.5 7.21665 0.564048 6.93631 0.687377 6.68049C0.810707 6.42466 0.990141 6.19995 1.21233 6.02306L6.87825 1.3459C7.21935 1.07259 7.63037 0.900608 8.06447 0.849538C8.49856 0.798468 8.93827 0.870369 9.33349 1.05705C9.67697 1.20845 9.96961 1.45552 10.1765 1.76875C10.3833 2.08199 10.4956 2.44814 10.5 2.82348V12.1778C10.4956 12.5532 10.3833 12.9193 10.1765 13.2325C9.96961 13.5458 9.67697 13.7928 9.33349 13.9442C9.0159 14.0887 8.67139 14.1644 8.32251 14.1664ZM2.92322 7.50065L8.27807 11.9445V3.15677L2.92322 7.50065Z" fill="white"/>
</svg>
