<svg width="35" height="35" viewBox="0 0 35 35" fill="none" xmlns="http://www.w3.org/2000/svg">
<path d="M17.5001 7.29171C20.7877 7.29171 23.9406 8.59769 26.2653 10.9224C28.5899 13.247 29.8959 16.4 29.8959 19.6875C29.8959 22.9751 28.5899 26.128 26.2653 28.4527C23.9406 30.7774 20.7877 32.0834 17.5001 32.0834C14.2125 32.0834 11.0596 30.7774 8.7349 28.4527C6.41023 26.128 5.10425 22.9751 5.10425 19.6875C5.10425 16.4 6.41023 13.247 8.7349 10.9224C11.0596 8.59769 14.2125 7.29171 17.5001 7.29171ZM17.5001 9.47921C14.7927 9.47921 12.1961 10.5547 10.2817 12.4692C8.36727 14.3836 7.29175 16.9801 7.29175 19.6875C7.29175 22.395 8.36727 24.9915 10.2817 26.9059C12.1961 28.8204 14.7927 29.8959 17.5001 29.8959C20.2075 29.8959 22.804 28.8204 24.7185 26.9059C26.6329 24.9915 27.7084 22.395 27.7084 19.6875C27.7084 16.9801 26.6329 14.3836 24.7185 12.4692C22.804 10.5547 20.2075 9.47921 17.5001 9.47921ZM17.5001 11.6667C17.7644 11.6667 18.0197 11.7624 18.2189 11.9362C18.4181 12.1099 18.5477 12.3499 18.5836 12.6117L18.5938 12.7605V19.323C18.5937 19.6001 18.4885 19.8668 18.2993 20.0693C18.1101 20.2718 17.8511 20.3949 17.5746 20.4138C17.2982 20.4327 17.0248 20.346 16.8099 20.1711C16.5949 19.9962 16.4543 19.7462 16.4165 19.4717L16.4063 19.323V12.7605C16.4063 12.4704 16.5216 12.1922 16.7267 11.9871C16.9318 11.7819 17.21 11.6667 17.5001 11.6667ZM27.9228 7.45796L28.0438 7.54546L29.7326 8.95129C29.944 9.12913 30.0803 9.38041 30.1141 9.65463C30.1479 9.92885 30.0767 10.2057 29.9147 10.4295C29.7527 10.6534 29.512 10.8076 29.241 10.8613C28.97 10.9149 28.6887 10.864 28.4536 10.7188L28.334 10.6313L26.6438 9.22546C26.4324 9.04762 26.2961 8.79634 26.2623 8.52212C26.2285 8.2479 26.2998 7.97105 26.4617 7.74721C26.6237 7.52337 26.8644 7.36912 27.1354 7.31546C27.4065 7.26181 27.6877 7.31271 27.9228 7.45796ZM20.7813 3.64587C21.0584 3.64596 21.3252 3.75123 21.5277 3.94042C21.7302 4.1296 21.8533 4.3886 21.8722 4.66507C21.8911 4.94155 21.8043 5.21488 21.6294 5.42985C21.4546 5.64482 21.2046 5.78539 20.9301 5.82317L20.7813 5.83337H14.2188C13.9417 5.83329 13.675 5.72802 13.4725 5.53883C13.27 5.34964 13.1468 5.09065 13.128 4.81417C13.1091 4.5377 13.1958 4.26437 13.3707 4.0494C13.5456 3.83443 13.7955 3.69386 14.0701 3.65608L14.2188 3.64587H20.7813Z" fill="#3F424F"/>
</svg>
