<svg width="35" height="35" viewBox="0 0 35 35" fill="none" xmlns="http://www.w3.org/2000/svg">
<path d="M17.5001 7.29167C20.7877 7.29167 23.9406 8.59765 26.2653 10.9223C28.5899 13.247 29.8959 16.3999 29.8959 19.6875C29.8959 22.9751 28.5899 26.128 26.2653 28.4527C23.9406 30.7773 20.7877 32.0833 17.5001 32.0833C14.2125 32.0833 11.0596 30.7773 8.7349 28.4527C6.41023 26.128 5.10425 22.9751 5.10425 19.6875C5.10425 16.3999 6.41023 13.247 8.7349 10.9223C11.0596 8.59765 14.2125 7.29167 17.5001 7.29167ZM17.5001 9.47917C14.7927 9.47917 12.1961 10.5547 10.2817 12.4691C8.36727 14.3836 7.29175 16.9801 7.29175 19.6875C7.29175 22.3949 8.36727 24.9914 10.2817 26.9059C12.1961 28.8203 14.7927 29.8958 17.5001 29.8958C20.2075 29.8958 22.804 28.8203 24.7185 26.9059C26.6329 24.9914 27.7084 22.3949 27.7084 19.6875C27.7084 16.9801 26.6329 14.3836 24.7185 12.4691C22.804 10.5547 20.2075 9.47917 17.5001 9.47917ZM17.5001 11.6667C17.7644 11.6667 18.0197 11.7624 18.2189 11.9361C18.4181 12.1098 18.5477 12.3498 18.5836 12.6117L18.5938 12.7604V19.3229C18.5937 19.6 18.4885 19.8668 18.2993 20.0693C18.1101 20.2718 17.8511 20.3949 17.5746 20.4138C17.2982 20.4327 17.0248 20.3459 16.8099 20.171C16.5949 19.9962 16.4543 19.7462 16.4165 19.4717L16.4063 19.3229V12.7604C16.4063 12.4703 16.5216 12.1921 16.7267 11.987C16.9318 11.7819 17.21 11.6667 17.5001 11.6667ZM27.9228 7.45792L28.0438 7.54542L29.7326 8.95125C29.944 9.12909 30.0803 9.38037 30.1141 9.65459C30.1479 9.92881 30.0767 10.2057 29.9147 10.4295C29.7527 10.6533 29.512 10.8076 29.241 10.8612C28.97 10.9149 28.6887 10.864 28.4536 10.7188L28.334 10.6313L26.6438 9.22542C26.4324 9.04758 26.2961 8.7963 26.2623 8.52208C26.2285 8.24786 26.2998 7.97101 26.4617 7.74717C26.6237 7.52333 26.8644 7.36908 27.1354 7.31542C27.4065 7.26177 27.6877 7.31267 27.9228 7.45792ZM20.7813 3.64583C21.0584 3.64592 21.3252 3.75119 21.5277 3.94038C21.7302 4.12956 21.8533 4.38856 21.8722 4.66503C21.8911 4.94151 21.8043 5.21484 21.6294 5.42981C21.4546 5.64478 21.2046 5.78535 20.9301 5.82313L20.7813 5.83333H14.2188C13.9417 5.83325 13.675 5.72798 13.4725 5.53879C13.27 5.3496 13.1468 5.09061 13.128 4.81413C13.1091 4.53766 13.1958 4.26432 13.3707 4.04936C13.5456 3.83439 13.7955 3.69382 14.0701 3.65604L14.2188 3.64583H20.7813Z" fill="#F2EFFF"/>
</svg>
