<svg width="20" height="20" viewBox="0 0 20 20" fill="none" xmlns="http://www.w3.org/2000/svg">
<path d="M9.10148 12.3828C9.97359 11.8908 10.6582 11.1237 11.0482 10.2015C11.4383 9.27926 11.5119 8.25379 11.2575 7.2853C11.0032 6.31681 10.4352 5.45986 9.64228 4.84831C8.84939 4.23677 7.87625 3.90509 6.87492 3.90509C5.87359 3.90509 4.90045 4.23677 4.10756 4.84831C3.31466 5.45986 2.74666 6.31681 2.4923 7.2853C2.23794 8.25379 2.31155 9.27926 2.70162 10.2015C3.09169 11.1237 3.77625 11.8908 4.64836 12.3828C3.11876 12.8651 1.79013 13.8368 0.867107 15.1484C0.830981 15.1986 0.805144 15.2555 0.791084 15.3157C0.777024 15.3759 0.77502 15.4383 0.785186 15.4993C0.795353 15.5603 0.81749 15.6187 0.850322 15.6711C0.883153 15.7235 0.92603 15.7689 0.976482 15.8047C1.05767 15.8586 1.15248 15.8884 1.24992 15.8906C1.32457 15.8903 1.3981 15.8725 1.46459 15.8386C1.53109 15.8046 1.58868 15.7556 1.63273 15.6953C2.22315 14.8535 3.00753 14.1661 3.9196 13.6913C4.83168 13.2165 5.84464 12.9682 6.87289 12.9675C7.90114 12.9667 8.91447 13.2135 9.82725 13.6869C10.74 14.1603 11.5254 14.8465 12.1171 15.6875C12.1523 15.7386 12.1972 15.7821 12.2493 15.8157C12.3015 15.8493 12.3597 15.8722 12.4208 15.8831C12.4818 15.894 12.5444 15.8927 12.6049 15.8792C12.6654 15.8658 12.7227 15.8404 12.7734 15.8047C12.8736 15.7312 12.9411 15.6214 12.9615 15.4988C12.9819 15.3762 12.9537 15.2505 12.8827 15.1484C11.9564 13.8401 10.629 12.8692 9.10148 12.3828ZM3.28117 8.4375C3.28117 7.72672 3.49194 7.03191 3.88683 6.44092C4.28171 5.84993 4.84298 5.38931 5.49965 5.11731C6.15632 4.84531 6.87891 4.77414 7.57603 4.9128C8.27314 5.05147 8.91349 5.39374 9.41609 5.89634C9.91868 6.39893 10.261 7.03928 10.3996 7.73639C10.5383 8.43351 10.4671 9.1561 10.1951 9.81277C9.92311 10.4694 9.46249 11.0307 8.8715 11.4256C8.28051 11.8205 7.5857 12.0312 6.87492 12.0312C5.9218 12.0312 5.00771 11.6526 4.33375 10.9787C3.6598 10.3047 3.28117 9.39062 3.28117 8.4375ZM19.1405 15.8047C19.0594 15.8586 18.9645 15.8884 18.8671 15.8906C18.7915 15.8907 18.7171 15.8723 18.6503 15.8369C18.5836 15.8014 18.5266 15.7501 18.4843 15.6875C17.8927 14.847 17.1075 14.1613 16.1951 13.6881C15.2828 13.2149 14.2699 12.9682 13.2421 12.9688C13.1178 12.9688 12.9986 12.9194 12.9107 12.8315C12.8227 12.7435 12.7734 12.6243 12.7734 12.5C12.7734 12.3757 12.8227 12.2565 12.9107 12.1685C12.9986 12.0806 13.1178 12.0312 13.2421 12.0312C14.1952 12.0312 15.1093 11.6526 15.7833 10.9787C16.4572 10.3047 16.8359 9.39062 16.8359 8.4375C16.8359 7.48438 16.4572 6.57029 15.7833 5.89634C15.1093 5.22238 14.1952 4.84375 13.2421 4.84375C12.9122 4.84514 12.5839 4.88979 12.2655 4.97656C12.2045 5.00053 12.1391 5.01141 12.0735 5.0085C12.008 5.00559 11.9438 4.98896 11.8851 4.95967C11.8264 4.93039 11.7744 4.8891 11.7327 4.83849C11.691 4.78789 11.6603 4.72908 11.6427 4.66587C11.6251 4.60267 11.621 4.53648 11.6306 4.47158C11.6402 4.40668 11.6633 4.34452 11.6985 4.28912C11.7336 4.23372 11.78 4.18631 11.8346 4.14997C11.8892 4.11362 11.9509 4.08915 12.0155 4.07813C12.4141 3.96254 12.8271 3.90466 13.2421 3.90625C14.2437 3.90498 15.2176 4.23561 16.0113 4.84647C16.8051 5.45733 17.3742 6.31399 17.6295 7.28254C17.8848 8.25108 17.812 9.27692 17.4224 10.1997C17.0329 11.1225 16.3486 11.8902 15.4765 12.3828C17.0027 12.8676 18.3281 13.839 19.2499 15.1484C19.3209 15.2505 19.3491 15.3762 19.3287 15.4988C19.3083 15.6214 19.2407 15.7312 19.1405 15.8047Z" fill="#EAEAEA"/>
</svg>
